<mxfile host="65bd71144e">
    <diagram id="HIP3nbAZw_EuaXWnEj3U" name="Page-1">
        <mxGraphModel dx="1170" dy="737" grid="1" gridSize="10" guides="1" tooltips="1" connect="1" arrows="1" fold="1" page="1" pageScale="1" pageWidth="850" pageHeight="1100" background="#ffffff" math="0" shadow="0">
            <root>
                <mxCell id="0"/>
                <mxCell id="1" parent="0"/>
                <mxCell id="7" value="&lt;font color=&quot;#ffffff&quot;&gt;&lt;span style=&quot;font-size: 24px;&quot;&gt;Calculate PI, in JS&lt;/span&gt;&lt;/font&gt;" style="swimlane;whiteSpace=wrap;html=1;startSize=50;fillColor=#040405;strokeColor=#050000;" parent="1" vertex="1">
                    <mxGeometry x="40" y="50" width="1190" height="590" as="geometry"/>
                </mxCell>
                <mxCell id="8" value="&lt;div&gt;&amp;nbsp; &amp;nbsp; &amp;nbsp; &amp;nbsp; Enter in a number so the loop will be repeated to calculate PI&lt;/div&gt;&lt;div&gt;&lt;br&gt;&lt;/div&gt;" style="text;html=1;align=left;verticalAlign=middle;resizable=0;points=[];autosize=1;strokeColor=none;fillColor=none;fontSize=24;fontColor=#000000;" parent="7" vertex="1">
                    <mxGeometry x="-30" y="80" width="720" height="70" as="geometry"/>
                </mxCell>
                <mxCell id="12" value="1" style="rounded=1;whiteSpace=wrap;html=1;fontFamily=Helvetica;fontSize=24;fontColor=#000000;fillColor=none;strokeWidth=5;strokeColor=#000000;" parent="7" vertex="1">
                    <mxGeometry x="40" y="160" width="170" height="40" as="geometry"/>
                </mxCell>
                <mxCell id="13" value="Calculate" style="rounded=1;whiteSpace=wrap;html=1;fontFamily=Helvetica;fontSize=24;fontColor=#000000;fillColor=none;strokeWidth=5;strokeColor=#000000;" parent="7" vertex="1">
                    <mxGeometry x="50" y="230" width="150" height="40" as="geometry"/>
                </mxCell>
                <mxCell id="33" value="" style="shape=image;verticalLabelPosition=bottom;labelBackgroundColor=default;verticalAlign=top;aspect=fixed;imageAspect=0;image=data:image/png,UklGRlwiAABXRUJQVlA4IFAiAACwlQCdASrMAVkBPlEkj0YjoaGhI3NZ6HAKCWdu4XYA74Q/3Hnmck96/uiRY7H5u/5f3HfEL1j/pv/be4H+q/Tf8wX88/wP7O+7b/w/WP+1HsAfzb/KdZ36B3m2/9/9zPhs/d79y/aM//+sofdP8P/S+2f+1fjv58+Mby97K/vL/k/kA/kfGry/5l/yz7B/bv61+zP5N/e/+b/235G+cfAF/I/5h/b/yt/v/7j8iTrXmF+qfzb/W/3393f8j8P/w3+z9Bfrt/v/yZ+gD+R/0b/P/2T93f7r9Af7Tw2PvH+79gH+cf0n/af5H8lPj6/2f9B+Wft9+lv/D/kfgH/lv9W/4X+A/Kr57fYF+3n/490f9f//gP0E6RozMzMzMzMzMzMzMzMzMzMzMzMzMzMzMzMzMzMzMzMzMzMzMzMzMzMzMzMzMzMzMzMzMzMzMzLyiZcZDdhgEz7Ac4Y7ul25dvRUx3dLty7eipju6XaHrHSHtJfGLBZVyGZNvSZgcNMArkMycM2UJWIz0sU2d4+BCehbb1vJrbVVP3pYSXs5TnrE+FzJMVMSI7AEGvXAxYKS2l2hPFjR4my/fQwYOC24ZpD28OK2+kY8BhF1mSYVznBDOrMyLd2c1PO8SFsuHbwzClp46WqihwR5fdP+lda9cBJxN4ohl20/yRCO/PIa1Hmbufdgm8GCKY7DOQe4L0ZkDTkZJb0wl/xBj+wX6Z/3tObpkntyHWtGGQ45sGJcrE+rqNwxb4iFREo4r4reQOZbfeLbynKVIe9wFfIB3q+cTV6zXdpW5HDnbzNf9Tp3/8AE2P9NTVOZjexE9PCIde0IOs4CCT2EwQ6MfkVuLYR5lHwtnm7ixQyPgFyVvTHe848xNmzAOu7oI6QxP9jtY738tZjvco2koA3Uazx/bLgbx09Bp65g+VT9WGMdyDKsGAr7FDkXFFBOsbn38n8QjmJr6QP2PxHG8b5hedZH+E2glHTtGrnSj/KrZCWjAXtS7BNdtmTp55Mikj7XaD4JCQp6yYQnlY5lh0lhIxMX+VzY2qyq75PIvzsLFATWF01ZngaW5LE7u7u7u7u7u7u/WjjaOTxCsxR8btuqZOu1/BcBEawM+vd5bbI1TPEr/QtCm0GbpPSaLdGGvgQY7QFN3gS9+BFVhe8Rbg9TaGQdkHI0RuKB95+6dP6+ufq2RZ8b4NFeFfBJ0+Xh7c3echTbcT88xdZyZyF4tu/c0VS3AQdq8eshRDKYL/dYKSkIjrpcnofinKLH4Hf0xWk0rlBDjqIao9scNkeLSrYJ3nOMGQ8QJkbMQ4Iju4wcr7haV4YkASa8wj7M8gbVVVVVR/jpbty/oP2VdiehPtZ+i99vQ3FRxhigthvB2/FMZ1MUvqxipyVVlMperfo59gIWWWMb5jL4okfxsOqrg+3vm7eii//vezVCSzMzMzMzMzsMdiXt1et0SCfgqqqqqqqqqqqqqqqqqqqqqqqqqqqqqqqqqqqqqqqqqqqqqqqqqqqqqqqqqqqqqqqqqqqqqqqqqqqqUbmtpCIMtoQHmV0sj5Hq27sI+MhLSZjAi26RozMzMzMzMzMufEERmPwjwolaJdOv/7OCAKLxD5M/1QAA/v/HbX6Mm6aCV46gAAAAAAAAAAAACMa7qU208bBF4S1rHkJ6TJfV1EFPxLQtEbeFI26n9YRqM/RBg4IB82AnjYCeNgJ42AnjYCeNgJ42AnjYCeNgJ42AnjYCdecRJgQ6sb8MJgCMIm2hL1MzPyd1fA+D92reJQlqCLAkXR0EpDZIJpd2AAADwdSNTHSWChAB5Y/5w7/l8fddVfQ6mCDxv1O34MrDkS66tQuHt2hcnLtnDVy+9nBmpCzNj3Wgtt1O9duMtjePO8b3wQRNgPr9Sd5D621212Lo/X9yOOhYL2jxccngDVvJbu46o/gT/5X/FWq+P8JBTocybt83wAJz548jwzEyBoDxgSw6dTezx+lna7O58nzvCNY+7tc+eXYF6WBqM3MyYgfFm4Zqvw21FL4TM336oqpclaqeJ2OidDT8ix/NMP0r8tlV1MNto8XDYzdEcvIZaCFaeCBuxxbtcI3AnGEpktgh4+ABP+nEieOfJ3eg92iRlDwZnfzsxSPawDvapN/77BOas/Db5kBTRKHhfMvZlo1JCvzOzoOsWplziOauVMtbdSPzPSP7WTYh2VdFbXYtwWIRO0cic2qK4rHHAb/iUzmkWDbXfrcVBaiR/FVjX1Z/7mLXaysOsxj5U06MdogxTi61fdCP87v3DdTCBkg9C+OO4rlt3j6KnlihQNxbjx/7pX7Uv9hOyAmb/R+3fBJTH/AD7OcFdIpQERbxrez7Iu/VBq6/Tgf+C5o+J7QkfKdj/QQLuNMWne0BA3JqzmW/yUzKDToZakU8yytdNVdDFQ70a6AZwIF82+NV2RRcc6Ap6rVil3plMY8VEBOJA6ysL+GGnttEwufru3i5k3dMiwqMQtuA48go3l8tXaiHXfyeuepJoDiBTY9ZV5ZglEufN8Te533W4ihd7t/swjZGXylmDWcpndPc/rcuMZi+poNx2lfvVcVyTQ7U6XYYsYdLtFI6r/4NIY2x9ZC0vU+9P6k5AMywZ7z/gwg6NITc35CPj9LUX7ellkVP4u0C8HGxZefG+8BRYHSIwb3X49gpboRfPblTm33Qz8INeWFzu/Xix8iDRywrF2daq5qcBuu3q2dP5E6lTVZY22vSReY3JLb9jzL0/GjMEyVInjWXtHT4leA8BuDSEh4e3oSyiSY9/ir/rElZFURRhDFLZrPR0vTNaqXwwMqdM4a7DYAgbwOv83GzxEkkRJLtfxhLhE64fgpJ9FAte5palc/4JKaEeMwPTfK/MKRfTGdaC1gzG8kj2npQTzqEZgdP8pQXXesBb7Ja4IKOot9P4MjWkTbISrlh7naLp3K6UOzaVubobotdiqaewoTJIfF7gdF5lIlIOgC5bt3J2+AJ17EkNKyZg5mMQufAF7taBcwN3pwECACjNqAF56iZLaclf7aHSvH4nmFm3HBJktXjcpnD+Yx72GXUX/l5ZEvpIpkkhXKRDMBvKnWehWCtDNnCsUFD/xoz15PqTaIdOqUEvA4kTbSVhXbeon15cDzlNRZl8sba63m7ndmeQdnvIzxeyKcfiSSyz2PN4xa2YLPTBaAdxkRd3vdED78sAy5Hsupl63uHY7e+6EnHetwfoimb0YlHA1oFf4CHIPdC3L1UvTqxh7OjzrJMkdTME7+IVBoF0l2xiws3KA19tiybdvD258iudFCi8G3V6QkAoj7b9btOth6owB3noMNhn62JkPjgrQb2iOhLy2Ncv7foHc1n1PVwoh9v+n7KTY7gmgAYxo6FlMZt/viwnYxfXHjQgG/OLTlD7PPwYf5JTaOwnhbCZktQ6M1NnKQcXYuzKU3OmDt4W627ws/BcY+JCjvCXGhDXNiPHkm8EFucEZOZv5780YGaoL1An/kdO4yFv4GKWQZIaSbQbcEsbRRVXSLVGYsi+J45CaltDgMooDJMWZAdzTVMilJtd88l+D2Ot/fuLPZVzp/wfgmpBWXNbRSdzAN50TMHrl1wzckRcV75kW+Zbove0PlI/eqlFHbrqQxdVhdmnVbqe8PxRuzQwEn0SS8oJ79HxvXf+gFFRfTihLGqtqii7fES2FvOSDjVlefwtVyJgPbHvUPO/x+FeEBWWds7ii0iqgADjIa5KAK03HAsDFQbZow+RNsGxEUO0eSzLXlLXyvFs7A46NTsfCsPnFXU8MKJGHrbO5zC62EuYRtg1bM/oD7AgCXota40KoZJSXNdfJFXv1rhIUeKf12YrdSt+Z5aJHzvA5QgYSY0O44857QnSC+0tDspQD3Icg9aqURmuVhREZdmvpiBSv3pUl0Sg013+BMuXBQ4hdfdHeOo+LcW7WkdmYcEpdRRdydUk3t/qWdDh2RpeGGgVPbZyhA3M/xW4Idi+DhFPgOusYsXmFyIsQAEZdEgkFHd9CpacwEmuUnzj1bjiUDnHiVxBga6cRHHh3+Mg+VdhTiOE4hQGc46yLNBBLRxWTpaN+LlbEvGp/MGL52A+0QBJrrzdEcH8sF4lhsyW1WCyPvc7hTyBWHOmNfzcY5qOM1Rqsu4FffvqKPIFhjrCpKA/BT45qzsWN7toQ/BMsvbWER93IOMHemS3YzciqQFnr974z6DAdQQVJwsokAV6AcPpgc0kSV+COU/VAIIuuEq2rp/dOEZ0Ylt+0ixDFmsSUoseUCsIk7gmbQ9N267g45X0UiBvYvmnewRXEJYfoPApzPiHdlsOOXtE4yi9fFCX/GrPWoxjsQUlKhLvBQ+w4CJRegifCH8zsSs3teVfdi1FnbI9XIttcCcYB04SXxmpckr5XD7HwhCjVGioSE2nf8m+pDpaqb5O+f6RCJ4p4e2IR++jk1mdeUNoAlXkSpdbS6K0IFumhNuIrizv43hKsWhtuPL3LqOBbFGl5G9mqSrD/n1yyDK4xhIZ/Z2Wau03zSSBTnNnv+Fg+CnirhhliH/6v/UsBkZJ+KuS02bfLFNWYe/qUQ3YLJpXaK4x/kNt/q9Z3y5AqBZr0DCCuPY3wPA3ucbqudmvetUUoTstllwr5Isgm9E9pF5NOemckKKCqOS3Wb+WyA8LyUhM1EHLyXPgFh1bW8BMuFiUYyHcuaNigCX2F7OfRqYg+e+dp7Fm1XkOXh4/TALlBAlcU3/IDLuwQmf58c4rNPS/cfzF09YTQ6snedZ9hAAkS1A4zQ8lQ3C9J72BP5q0gLhr5IWC8NT7in/c/vNbYlt0LPV//rDT29s2tXqNH5yxkeHpyAiEpNs/vb+rj/vkvM7mgNFYKZ6/aHJScgxmOx2CCkzjbPcf9VVfySmPr5J3Tu8hSSg3o1IdzMQiolp2jr43TUnu8O96cgudDPZHMJQv116T6q/4Q00krCIiM5mtoEECv7wsDg0TH/O711Xn8UkUPbdwzX67ub7y8GcOAl72YWIhlkfbWK7+oCs2F4+LvJVB2aB5qoWZe8qOns/g8jnROQ63xsjt1McCTLdqVC2EPXXCob5EEXP9p09yi0N/VWoYGjxidwkCyJkyN5Z2YKx+HhY5QoDsFCWcVeD6duVprTEFJw8cI287ULFRptrjd0BRdAKMzT3X2qE1a7/4I2okj2EIBuRRrQsAw5q9RXwQXtk3CfPGr7c5vGVTgBDxk/HWg6hoFgaL7B/8EjT5uh5T7WT+dFK+vwz0PtvuuoGXxiGdLZNFtc7a6wUMQqpBz6OERx83X8NCe1KaAytsQHym6iypamJOddml1sOGF7Ue424iTK8gphGqRaS6DjRMeGM0nq4qgxwN4ekiype3W2t6BrBSPQTQ738Q3wJbYUhIV36GYeYsbm2Y0a1gzW3ys7XsqqYiuVZnNHPbFbnuEbrso1IFCmRI0jZ/epu2apKx0tkfF6lDUUBHMzyqaP+ssXTJUHNRp8VBu8Nh7irKLUVl+8oi76cf08iHmUevHB2wyvCfC6sO2WOAfkLLQiU8NPZP6+zytwe9PrQRP+7Fn0QTnIXfy03GRZJWvwiekREbe/ojXBlbsJQEeTg/C2xRg2uou/gtgvnHzS+zDv3V5YZ5tg1ww6ubF/AE2Aq8U8o6uM34PVD/+F4/46Jg9qFZP6xWtmOvYWFscesaIjCc23EJnEeWEHsvg5eUEdSz2JP+ocmeT8jVfqjhoyhZR1xmjNR8kKNdv0jJxG/fDen/ysijAc60p49ellJKVQAEHDe02JAUiffAjs9rmzyiX/n5JR9FiSL7Mpf/L8ja0HXrWFftRqBZGXxyjnM8vDo/VJqrHHoQ+S2GTw2B3ANU+Fh/2Hn6mWBzjum2ZxiJb/80/iUDdz1lCaG0zswh+hWs0Xk8FrjD9Ex6Bb/+torfm3Sx7eNiiLt7X65fWMx46MW3q2OXF1/LdUAu6jvuNvcbslypw0zNbRYuZP1qT9gCPvqb3HRWv+3J5ILFWUftPj8I21/Z/Yuu2FE5UHRWqls2cq7NT88t9EWe0fbyD97tseFratmk9BwF/TsqLpFgdQ+klScjYhQSNG1xTA+XaF1SSvx1Ody37wkt05Ex1Gc92G5CwfLaYzDMVIg7IHy89EMcVQC0jTChXcg3giI/b26uUkEv9VoP7RjH2ezaSJ0CcIKLBlNOuGELFfU96ev3HOjFHfRrmtXP4OxJ+PdSAGLGmnvAkWefGGTxOwyFRG8nrc64v20La0GswpnmSs7HyhLXHhWc/Afl/vyXMUhlOKDABKqiU/tAIWU+VbcFfUNRPSAggu0O+0BzbO78gaGWl8cOswmMD+3gC1WN5P35UiUM7s3kc249Ypdg0ZijdGH3Q29ASdBVxWoanNyclX7xFH2/qwhNLicWXJBoTITlcj3JUiq07F/ANYkZlk9W7cVkYfTMR1VwuuCJnnuRF0LNAnzP44uB4Hnc6bXCGnR5FZ9jlRt1+mO3QZ9Dd/r7wSej77QmEi11bGrBmuIyA8DOBeJxW7SUeDeBshcx66xkjRRB92do1UpYu6dT39bD9Q0D1FUIb+zJn8BCbyzWHhFoJjSWN7LD6/GjLmsgorVtU+JXwGX2kQAYUIh7GppFSgbKX0zK637Z5+yHFBihppmlV+lfK3mkpXomsRa3b1Yjhwo7GJFeywIXD5i0l5kmW+A4K/7BoGtEe1qxkQG41/kUv5UYt7qaXaFQX6/uytfsHisOtBWXywcgvwJwY6clXOwwwkmFObvyxj+VgQTxSJmMg+jeJDCZXOmUCHv2oOIc5t2A/viAEwBkga1zY3PiivSb0WyeFxAcuIFvE3TLGpVWhVv3iR9n7UE8zuXE8eGlCV46J+d/Y/gMP1/SaacLLkC6fHZDMY91qmCQNuXxSY/hXoMODjZSDsgwq++PPctADDwaW5e68iAO86e3IOIvcSNYDjSFR/E+6deueyVZlGjOQCPAHlRq4jFZLPxKAAAABa6StbWAALoAN9hY7mQIA5rSn8lWulmu6UuUDZe6BJvQ1WaW3F1MtK8yDWV0Gzr28E7e4875ykgWuN2HK2iiPjvY9w9X4Dr9qdi+DgmIeBjaXl10IYjhN+5ej9GVwUzGYbMNckdgDwYe9Q7w8LXFEb89A2dMa7wRM/0cZYM9vGtFTUKDVJrpVX0p2cI3qW0IIOH9jBoBkq+8g5YY8X1UGKimPn+nTbpa+trxBZpUIJjmRYFQOj9BNrjhcpRbWS1xacnLQBN6yO2bNhzYu5pnmcuTezhBlpDDZeANlyjpAOEMQBqJ4BCX0g4DHI7kcqk9ieudR+WYjJr8L9YoWurU89pD3nHsqgLQvBa1Gs7ESubKvwt5QC08naVFh7YGlXXOOnGdW3xYjpac1oyGFpX5ezV1fDLAUnBi4fXptbXGrsJzTWXu/iSyVxVVA+M+BmSai3qbTZD86oxlodgfg/q48lp5kfGPpgISRGW9awpgdoNAE5UdAbeO3ckaKCRpTZnxRb6LPEjb8Ivm9cmpgaVrw0Epz2xHu868eM4IqzEUz/o5cfwQxMl9PcBdSd7vAv20FNnyjjahsG/OlgpFiHbreBfr49j2YxEXd5WI8pTH/DZ2yx9zvFf/CsqI6yBxZ76I9Ip/hlDLwBzFA8kKDcDRWfVcSYuiXcw1+HswcOFa8WypfFBsbdzY+C9JAKGtQbfOxQX+mVk3zjeRzK4ND3dPQ3M3uM8JkcML6z94LU6RUvz8LRiFI5lqN8OFfYVQuRHfv4e83TBreBLocLkJK0hq/OmNC3f44M2p1fP3mDhGAQELYOUc2CVA0LL8L3N0KVXKu42BnOWCqwEqRbiFG0scM1t8k4HCtBzRiAmQC+j3SZTNVAGv6qzy53OyyRl6ZNSi0TCJp3nVO+OXBuOc1HI09ct7BcPVIqZwBjN8WywW5jEHlYQdbX8XIzcaXo20u7O4Bs9Snoc1dw3XuaFlHsWeN3tRdTqigk0W5UUzvjntsOn5UXFg8r2B/IbR4nwDBKKJlJXfpoEejj3HRuqxRjUIuDGYVsESR98v6aYCAj2W8NV6P5rhvgBZbrKS0VLrCiF9q63YjYyn2fzs0Krbw6oKG1EinpR0gZhe0Wx7DJ0tzEeGk8sYJhpge6ZYXREYbfUjaO3QJPdhEU21CdJHY34twhi3Ob6QWjt56au5N7ITq8m5QCHshVAvggOiiWm9/e4mtNl09jXNl7wClcNKVObIKU/UhDqJAZYu3XQdbm8T8fA4pPtdlmakYRDo1IgeTT3FXIqiCCwxis6xXHCyKaBxALfyUeJZ5sMikl/dTDJeOloB+qw9pFLOoWqAs9QL6ZzYlTl70cC6y4Ua57jwFZV2Kwj9e6uQhKCb5JIFecQZJAr7YeXldNk2kkik1/K8tseiHrXuUKYo6SAIwI+0k5FW01J1DxDVwlM+hOmRI/dqgn/3UmYxEaCd9BFpKo+BJyN4LAVwhu2uldMZtdMlW5kqRkX73rw0t0laIDbedjXD57+r+gFpjzLfnzfjZxE6hv3g74HwoVYtYn7VdfLcSR2cIQnYSaDqfCnW9y4MNkr5+oMRnpDxggTPLzaZd8bhglXCugh1+iweLEC9Hyc7brZ1nq/TvtuBY6S7kN/ZtJGg8/Cm/ysVjMo6K+b5rs0BTl9CdBnpa/XaOgVnV9NMSoLNKXeF/iJZ016Jo7gTQDq4emNAHsehjkJKwytoZhNleBaA46nJZ0mOkpdHaifa0ObMXHQ7/9Hiyg2as9pNhWFg67BMEd7frV5SGKj2QL8r9dR2SPdQvENiFXDAW5oszPff1oCA0jRLEXhGkKrYpSZjtv9aYzdV9cXhLhlFoxFSCY/xhiBA7VLYeXjWgFhLuJbPgoTkm+h28Xb3TfEIOaYkMnUp8/x52bhhzPdOThqM5kF55kcyLuX2zq3nmufX2XBZJZ6b6bjrc2BfOv+mHXHwq+QpC9LY2qa/96pcbGELFNPZ5PGelTF+iDNheNvcFWLH4o0vbyEdGazAF461irMYJjn3w9MlKmrV6KoWkfCwHohhrxCZzZXwao0sw2PaM4oA9sZ5RxKdwfYz28NFObh6kmk3BwMY3PpGPM1WXEXLcj0FiwzrAnsgXAIp6maZushfpd6YrjkTwnJuzyFRFgZKpYEefD9QGzHgz6kFF1vaof8sDES4VO5TwSrkmnapFAbhca4knnfZGO9JaeZNdLesAZv9tfmWg1kAsbtjrEJYMlkAqo8z08Y9GaNcpd+PjN2EF4v7JdON3HJ93dP1nezKaOzdD+K9LGsGH/Ni0Ps7+83PHeacg534TsY1J1yi2oKdVW+8lWjZMi9GY0OAbCiKnfxkPcFxeZuCFRwlnA5ohIw9FtQJVURj8tX/7kkfot0sdn3Fo3zYKF31YTuQ3eqIYTT7pGGWomja1xTikZWYjPQ9IUfu3TB2EDBZkrWXOi+vOylrHds/gui99DX56DGvEFpVkPisi82PvT6yv5/TXb/Kwg3QaTSPU+Sc/dxoSUK7T2J407p6ot3aNXnuyEITWBqRvdD36nTwN7QEy6mL9ApsXbo6Kg01sUZNIjKpWczU6PeLEICIWjuJdoVY3nx1TdW1UkqRvj598ov1XxB+2l5zv6HKAVUU+3VsytDU5tKZO5uSKk/AjuA8NZh+GTnQgLfPYZ3jH/433t9E55PVxPydKyICurOdERtGPEn+z32WejiZzyDQy81aV7e7HEo9pPg3AJ6PpuWlq6ZBqDy5Dd2Lmpo3PtLYhclyzfds4zGpwHLMf1soAHvpp5ogEYOTTWNOg6VLZpedAanwF5u8nOpowvBO4ryOpQcSKMByh8u3CZ/ra+PyXb5KJAz5C4DTmDkkS4imHEelp1aG5NzBBiChz1brDAyWw396bWB1Xn0AeFdHll3UKsMGzNw513o2XK/v004sQiXxVQPnzEt+Kfhm47aWokR18S/6My707o5NkEPwdPPAxiRUtxKCKFthcxM4ZSZvzc5YE+ApiqR8bC8guEJreJTGBLh6KHvApNbumq5fDQZpsqxtTBINLwBFah27jrnOGg9bKGD643TXf27uuzOKHtqn4FPAmKWwCRZP7LOcyhxoPzoxIiT9HpOtwGl93faufJxfXmKWUoINfZIzQ0wmPmAtz2PeiIkdcGSVYCINlxo7bDcFkGqMvr9uJRYcBHvR5eq+t7OIpCsQytMs6d6WAk+BiFr0wfILYO9FgBp1zaopF2crRT3QGe3dPE4HAEnMKUS66UfyDfhUuKVJmk0uvRK6pWQ4L43e/k4ZTRUpkPnYrWpibbv5MTeOE7l8gbowlYbb3qUf+2HNJc0P9TWt0+2ELjW3kkdrvXHWdJASXdg+an09EZBQvOCxvspMSiExDbVvuD5Y7ZknLUbqqfcP0g/Z4q9IUyEiaybEXw3J+SmdcV1T1kfiZ7vGF2FSt+DQr8nFbHWMNiLNcCeU8YSVdszJoBYWX20hDRFtkR3RJbb0pSEMuTX3/9aYAnKC+Yv58TYcvPJoAL5+hJaCbprkSFY+QiydECOk4ONwyI58/mAmYNopPcCh/GEFtF8cXdDSEHOJHjYL6czYlLQXAkZFSiPL3ghlLJd//ikQ6oDnNqqf3b8Y/P/QwO2ZWqMDLRlC86jZClh5Im6Zael7nDtcVbToaThN4Ccdg7cArImSX3/TmvLI8PCEIeuFzt5v/sGW5XJNY+yL0dyhuEymCuKr//11dIMTNJOcaTMxI+i7DuYl9ZlhztWfLGFmb3bSSvlXbUGXC6sbwMhFCOA7+FiBENyXWq75tDUmKYBSLR21/CWCwmzXSRPXbS8RSEvjAMc5alPWP6Z0hGB7kEIoTvRZQir+9L0XrZp7l7LzUeseCbP5vK/3AZco/I1zdbzAD5wZbgCx0t0O5djAFdmaNTkHC1XXmoCP4rGay8oshdyYrxAtmzfKwGGvG24AZHX5d0kM9202PT1vXVyTJ2I5YGfbDpULmwEUljWbs/BXeuDy1ESB9g7dnpArsSAL69cupeTBuvbU4iSiGKTXL9KdlWf0Crlqll2A15UgD6fUwyklnHgJZUzHsJQ8ChfINdvGUqGoiLQQkU2Y1IhwVSW5e7vlyCCctx8SRCWcKBdtH8VumdUCVRGbWT5qQUZFDbsNiHAZ40uQr5+qgg9o26vPnVv0gnmC5VKqY3R9+kmgAAAAAAAAAAAAAAAAACV6samwNkc33hCOmhlEz1EabVHoANBGhepm/Bvewtw8BCyE7MRRiNBHPeQjqA/T7t+BRpx7BxfWbgmTkULs9cTnIBqkimz2mbXip4xHI31Hk/z7UB/S5hlkw+WRFZkm0E8r1qvS5JRAK3xys457RVb3BkBIX7QdZbIOr8r8XxcL0rCQp11FMTTNv5cptuvUXlsPbrwz60W9KLG2lthOB6cXby8QB52TxkIkbOxRWCIO/IXTMR6f9amgybZJ9fZoNVvNWiwYrkX6RATpHFZuRk3gHyM48j27xeEdnFTx8YvB8Ya3AGBwsxJlpX2rsBPCcAGdD2MZlc46appirnRv1L/PJqOwovg4nFGYAH+omyiUlSQcajSjGHV5Vjomn+bcAmKZRbJZvtEeAJt/fyIbdO+Bv/m/V9zXfxIGx03M2jwyeBhBEEQPcCFJJJXKKpp90FbV8eewOKTtzRA6fUAyHd6h+Hjq4AMBgcpWtW3PxuQ1IRuNGUKwuKul0FOxwmyv51IDjc52ZoGpFBdlaQDTwyULBQPkMHMFNUrN4kgAAA=;" vertex="1" parent="7">
                    <mxGeometry x="760" y="147.5" width="393.33" height="295" as="geometry"/>
                </mxCell>
                <mxCell id="34" value="&lt;font color=&quot;#000000&quot;&gt;&lt;span style=&quot;font-size: 22px;&quot;&gt;Your result is ≈ 4.00&lt;/span&gt;&lt;/font&gt;" style="text;html=1;strokeColor=none;fillColor=none;align=center;verticalAlign=middle;whiteSpace=wrap;rounded=0;fontColor=#FFFFFF;" vertex="1" parent="7">
                    <mxGeometry x="30" y="300" width="220" height="30" as="geometry"/>
                </mxCell>
            </root>
        </mxGraphModel>
    </diagram>
</mxfile>